# xmcd
#
# Track frame offsets: 
#        150
#        30391
#        56346
#        82125
#        106524
#        135377
#        159697
#        181928
#        206775
#        238425
#
# Disc length: 3392 seconds
#
# Revision: 13
# Processed by: cddbd v1.5.2PL0 Copyright (c) Steve Scherf et al.
# Submitted via: ExactAudioCopy v1.3
#
DISCID=800d3e0a
DTITLE=Medwyn Goodall - Medicine Woman II
DYEAR=1998
DGENRE=New Age
TTITLE0=Celebration
TTITLE1=Invocation - Part 2
TTITLE2=Jungle Heart
TTITLE3=Orchid Potion
TTITLE4=The Gift
TTITLE5=Talking to the Sun
TTITLE6=Sacred Ground
TTITLE7=After the Rains
TTITLE8=Emerald - Mayan Relic
TTITLE9=The Gift - Single Version
EXTD=
EXTT0=
EXTT1=
EXTT2=
EXTT3=
EXTT4=
EXTT5=
EXTT6=
EXTT7=
EXTT8=
EXTT9=
PLAYORDER=
